# xmcd
#
# Track frame offsets: 
#        150
#        32828
#        48969
#        68812
#        93298
#        116414
#
# Disc length: 1753 seconds
#
# Revision: 0
# Processed by: cddbd v1.5.2PL0 Copyright (c) Steve Scherf et al.
# Submitted via: ExactAudioCopy v0.99pb3
#
DISCID=4506d706
DTITLE=Loanna Kelley - and The Broken Hearted Lovers
DYEAR=2006
DGENRE=Indie
TTITLE0=Sank
TTITLE1=I Should Be So Happy
TTITLE2=The Way That You Kissed Me
TTITLE3=Troubles Of The World
TTITLE4=If Men Go To Hell
TTITLE5=Whose Side
EXTD=
EXTT0=
EXTT1=
EXTT2=
EXTT3=
EXTT4=
EXTT5=
PLAYORDER=
